<?xml version="1.0" encoding="utf-8"?>
<!-- Generator: Adobe Illustrator 24.1.2, SVG Export Plug-In . SVG Version: 6.00 Build 0)  -->
<svg version="1.1" id="Capa_1" xmlns:xodm="http://www.corel.com/coreldraw/odm/2003"
	 xmlns="http://www.w3.org/2000/svg" xmlns:xlink="http://www.w3.org/1999/xlink" x="0px" y="0px" viewBox="0 0 99 85.8"
	 style="enable-background:new 0 0 99 85.8;" xml:space="preserve">
<style type="text/css">
	.st0{fill-rule:evenodd;clip-rule:evenodd;fill:#968027;}
	.st1{fill:#FFFFFF;}
</style>
<g id="Capa_x0020_1">
	<polygon class="st0" points="0,42.9 12.4,21.4 24.8,0 49.5,0 74.3,0 86.7,21.4 99,42.9 86.7,64.3 74.3,85.8 49.5,85.8 24.8,85.8 
		12.4,64.3 	"/>
	<path id="rocket_launch.svg" class="st1" d="M30,42l5.8,0.8c0.2-1.9,1.4-6.8,2.1-8.6l-3.7,0.4L30,42L30,42z M41.2,45.1l10.1,5.5
		c4.2-3.3,7.7-7.4,10.4-12c4-7,6.2-16.2,4.1-24.2c-7.3,1.3-14.3,7.4-19.1,15.3C43.9,34.6,41.9,39.9,41.2,45.1L41.2,45.1z M52.4,37.4
		c-2.7-1.8-3.7-4.9-2.1-7.7c1.6-2.8,5.1-4,7.9-2.4c2.8,1.6,3.5,5.2,1.9,8C58.7,37.9,55,39.1,52.4,37.4L52.4,37.4z M59.5,59.1
		l4.2-7.3l-1.9-3.6c-1.5,1.9-4.4,4.7-6.3,6.1L59.5,59.1L59.5,59.1z M69.1,8.3c2.3,5.3,3.3,10.9,2.7,16.7c-0.5,5.8-2.5,11.6-6.1,17.9
		l3.2,6.5c1.2,2.4,0.6,3.8-0.3,5.4l-8.5,14.4l-9.4-11.9l-15-8.6l-15.1-2.1l8.4-14.7c1.4-2.4,2-2.9,4.8-3.1l7.3-0.5
		c3.4-5.9,7.7-10.9,12.4-14.3C58.2,10.7,63.1,9.1,69.1,8.3L69.1,8.3z M29.5,59.8c2.3-4,7.4-5.4,11.6-3.1c4,2.2,5.8,7.3,3.1,11.6
		c-2.6,4.1-11.1,8-15.4,9.8C28.2,73.5,27.1,64,29.5,59.8z M33.9,69.3c1.2-0.6,3.2-1.5,4.5-2.7c1.5-1.4,1.9-4,0.1-5.1
		c-1.7-1.1-3.8,0.2-4.5,2.1C33.4,65.5,33.5,67.8,33.9,69.3L33.9,69.3z"/>
</g>
</svg>
